<svg id="Lager_1" data-name="Lager 1" xmlns="http://www.w3.org/2000/svg" viewBox="0 0 100.89 100.49"><path d="M1409.28,520.85a12.75,12.75,0,0,0,3.77,12.65c.76.72,2.3,1.75,2.17,2.86-.18,1.55-2.14,2.83-3.35,3.52a8.72,8.72,0,0,1-5.55,1.29,4.56,4.56,0,0,1-3.34-3c-1.64-3.73-1.42-8.28-1.31-12.26a50.63,50.63,0,0,1,3-16.26l-1.84,1.05a49.19,49.19,0,0,1,20.49,10.7c2.68,2.29,5.92,5.51,5.37,9.39a11.74,11.74,0,0,1-2,4.47,51.68,51.68,0,0,1-4,5.54c-1.49,1.76-3.55,3.11-4.33,5.37-.9,2.63-.06,5.27,1.16,7.64,1.87,3.6,4.16,7,5.92,10.61a64.4,64.4,0,0,1,3.59,9.85,183.67,183.67,0,0,1,5.75,25.77,47.23,47.23,0,0,0,1,6.28,2.72,2.72,0,0,0,1.09,1.7,1.79,1.79,0,0,0,2.52-1,9.36,9.36,0,0,0,.58-2.92c.18-1.52.3-3.05.45-4.57a68.07,68.07,0,0,1,2-11.87c.44-1.57,1.06-3.08,1.48-4.66a23.63,23.63,0,0,0,.72-7.25c-.32-5.27-1.62-10.47-1.88-15.74-.13-2.81,1.51-4.52,3.2-6.56s3.41-4.13,5.13-6.18,3.45-4.09,5.19-6.13a39.71,39.71,0,0,1,5-5.24c3.79-3.08,8.7-4.42,13.39-5.43a73.64,73.64,0,0,1,15.52-1.63,77.82,77.82,0,0,1,7.78.41l-1.06-2.56c-6.35,5.37-11.59,12.52-13.38,20.76-1,4.49-.65,9.11-1.41,13.62a27.45,27.45,0,0,1-4.49,11.49,16.56,16.56,0,0,1-9.51,6.52c-3.56.87-7.89.45-10.68-2.16-3.74-3.5.38-8.29,2.21-11.66a36.55,36.55,0,0,0,3.29-8.35c1.82-7.08,7.52-12.76,13.43-16.71,1.6-1.07.1-3.67-1.51-2.59-5.95,4-12.06,9.76-14.33,16.77a55.2,55.2,0,0,1-2.7,7.89c-2,4-5.9,8.31-4.76,13.09,1,4.22,5.76,6.5,9.7,7a18,18,0,0,0,11.89-2.86c7.79-5.06,10.45-14.58,11-23.34a48.38,48.38,0,0,1,.93-8.49,30,30,0,0,1,2.68-7,40.59,40.59,0,0,1,9.8-11.82c1.09-.93.1-2.44-1.06-2.56-10-1-20.75-.27-30.35,3a27.07,27.07,0,0,0-11.77,7.76c-3.52,3.91-6.84,8-10.2,12.06a53.67,53.67,0,0,0-4.77,6c-1.32,2.16-1.27,4.51-1,6.94.33,2.59.67,5.17,1,7.75a51.86,51.86,0,0,1,.72,8.15c-.12,3.9-1.85,7.4-2.68,11.16a94.14,94.14,0,0,0-1.64,11.72c-.12,1.31-.21,2.65-.41,3.93-.05.37-.22.78-.24,1.15,0,.2-.16,0,0-.1l0,0c-.12.2,0,.08.39-.37a2.21,2.21,0,0,1,1.56.19s.32.32.13.15.1.31,0,0c0-.12-.08-.25-.11-.37a10.94,10.94,0,0,1-.23-1.11c-.2-1.08-.35-2.17-.51-3.26a180.34,180.34,0,0,0-5.13-24.56,98.45,98.45,0,0,0-3.43-10.6,87.46,87.46,0,0,0-5.81-11c-1.21-2-3-4.53-2.53-7a3.52,3.52,0,0,1,1.08-2.11c.91-.92,1.86-1.78,2.7-2.76a60.24,60.24,0,0,0,4.12-5.67,18.42,18.42,0,0,0,2.45-4.77c1.09-3.68-.43-7.25-2.77-10.08s-5.73-5.31-8.86-7.5a47.23,47.23,0,0,0-9.47-5,51.45,51.45,0,0,0-6.63-2.08,1.55,1.55,0,0,0-1.85,1.05,52.11,52.11,0,0,0-3.09,16.49c-.15,4.54-.31,9.54,1.47,13.81a8.09,8.09,0,0,0,3.81,4.4,9.32,9.32,0,0,0,6.91,0c3.26-1.13,8.53-4.49,7.14-8.68-.66-2-2.69-3.22-4-4.73a9.38,9.38,0,0,1-1.84-8.53c.45-1.88-2.44-2.68-2.89-.8Z" transform="translate(-1398.61 -507.76)"/><path d="M1474.62,558.11a4.06,4.06,0,0,1-2.12,1.15,23.76,23.76,0,0,1-10.57.72,1.55,1.55,0,0,0-1.84,1,1.5,1.5,0,0,0,1,1.84,28.28,28.28,0,0,0,8.95,0c2.59-.41,5.5-1,7.13-3.26a1.5,1.5,0,1,0-2.59-1.51Z" transform="translate(-1398.61 -507.76)"/><path d="M1450.11,555.74a13.32,13.32,0,0,0,3.87,12.61,1.53,1.53,0,0,0,2.12,0,1.51,1.51,0,0,0,0-2.12,10.27,10.27,0,0,1-3.1-9.69,1.54,1.54,0,0,0-1-1.85,1.52,1.52,0,0,0-1.84,1Z" transform="translate(-1398.61 -507.76)"/></svg>