<svg id="Lager_1" data-name="Lager 1" xmlns="http://www.w3.org/2000/svg" viewBox="0 0 207.87 281.94" class="v3">


<path d="M1139,704.32l35.41-5.72c11.29-1.83,22.69-3.43,33.74-6.47,4.71-1.29,9.55-2.8,13.6-5.63a23.24,23.24,0,0,0,8.16-10.6,58.19,58.19,0,0,0,3.2-13.68c.82-5.71,1.63-11.43,2.33-17.17,1.41-11.54,2.37-23.18,1.83-34.82-.14-2.9-.34-5.8-.71-8.68a16.9,16.9,0,0,0-2.13-6.91,26.19,26.19,0,0,0-4.66-5.09,34.33,34.33,0,0,1-4.72-5.28c-2.79-3.94-4.87-8.31-7.28-12.47a43.85,43.85,0,0,0-9.14-11.36,78.5,78.5,0,0,0-12.33-8.34c-5-2.85-10-5.63-15-8.44s-10.33-5.78-15.5-8.65c-4.64-2.58-9.28-5.29-14.37-6.88a29.34,29.34,0,0,0-15.88-.27c-5.59,1.34-11,3.47-16.44,5.32l-8.32,2.84c-1,.33-1.62,1.76-.67,2.51,9.45,7.45,19.08,15,30.39,19.4,12.45,4.87,25.69,4,38.79,3.64,11.4-.35,23.68-.12,33.86,5.69a42.32,42.32,0,0,1,7,5.28,18.66,18.66,0,0,0,7.32,4.38c5.29,1.46,10.83-.27,15.48-2.83,5.66-3.12,10.11-7.78,15.1-11.8s10.54-7.39,17-6.7v-3l-35.48-1.8c-2.49-.12-5.3-.14-7.3-1.83a8.34,8.34,0,0,1-2.66-5.37c-.63-5,2.48-9.62,5.16-13.58q19-28,40.17-54.49,10.51-13.15,21.55-25.87,2.71-3.13,5.46-6.24c1.73-2,4-3.91,5.26-6.23,1-1.81.91-4.25-1-5.43a6.08,6.08,0,0,0-5-.16c-2.38.8-4.51,2.36-6.66,3.62l-7.57,4.47q-7.69,4.53-15.37,9.09-15.47,9.18-30.9,18.43c-4.08,2.45-8.8,4.87-11,9.36s-1.32,9.68-.48,14.45c.94,5.39,1.34,10.68.16,16.08a36.81,36.81,0,0,1-1.08,3.86c-.3.91-.72,2.42-1.8,2.68-1.67.38-2.91-2.62-3.3-3.79a49.06,49.06,0,0,1-1.43-7.72c-.48-2.87-.95-5.75-1.42-8.62-1-5.77-1.68-11.64-2.89-17.36a10,10,0,0,0-3.18-5.89c-2-1.62-4.56-2.52-6.87-3.58l-16.25-7.45c-5.39-2.47-10.75-5-16.18-7.41-2.23-1-4.75-1.69-7-.46a7,7,0,0,0-3.26,4.51c-1.15,4.9,2.54,9.18,5.74,12.4a82.11,82.11,0,0,0,11.35,9.18c4.17,2.93,8.47,5.72,12.43,8.94a70.31,70.31,0,0,1,10.11,10.08,71.33,71.33,0,0,1,13.27,25.2c1.26,4.3,2.53,9.06,2.37,13.57-.07,1.94-.53,4.12-2.29,5.21s-3.87.29-5.39-.83c-4-2.94-4.24-8.15-5.4-12.54a18.62,18.62,0,0,0-8.21-11.2c-8-5.31-17.72-8.39-27.19-9.66a72.19,72.19,0,0,0-28.92,2,69.17,69.17,0,0,0-13.3,5.25,1.51,1.51,0,0,0,0,2.59c14,7.25,29.89,8,45.33,8.23s31.91-.42,46.71,5.15c3.55,1.34,6.69,3.45,8.29,7a19.41,19.41,0,0,1,1.17,9.49,56.52,56.52,0,0,1-2.1,10.38c-1.13,4.07-2.29,8.13-3.3,12.23-4.2,17.13-6.69,34.81-6.23,52.47a143.44,143.44,0,0,0,3,26c.83,3.92,2,7.76,2.87,11.68.78,3.43,1.43,7.13.71,10.63a11.13,11.13,0,0,1-2.12,4.71l2.5.66a35.53,35.53,0,0,0-28.26-24c-2.73-.45-5.78-.8-8.14-2.34a4.55,4.55,0,0,1-1-6.9c5.27-6.61,13.62-.52,18.28,3.46a117.42,117.42,0,0,1,18.79,19.48,1.53,1.53,0,0,0,2.36.3c6.73-5.88,6.59-15.46,8.84-23.43a40.69,40.69,0,0,1,37.63-28.79c3.11,0,8.66.57,8.95,4.64.26,3.71-4.91,6-7.66,7.18a81.94,81.94,0,0,0-11.4,5.7,67.39,67.39,0,0,0-10.18,7.86A71.62,71.62,0,0,0,1239,658.47a69.16,69.16,0,0,0-6.94,24.69c-.37,4.4-.78,9.67.91,13.84,1.82,4.48,6.47,7.18,10.64,9.15,9.46,4.48,20.18,5.81,30.51,6.53a163,163,0,0,0,33.91-1.21c2.81-.4,5.62-.87,8.41-1.41,1.89-.37,1.09-3.26-.8-2.9a159.4,159.4,0,0,1-34.33,2.86c-10.73-.27-22-1.17-32.14-4.79a43,43,0,0,1-7-3.21,16.63,16.63,0,0,1-5.6-4.59c-1.48-2.18-1.63-4.85-1.7-7.41a60.58,60.58,0,0,1,.16-6.46,65.39,65.39,0,0,1,7.29-25,69.19,69.19,0,0,1,15.92-20.22,63.94,63.94,0,0,1,10.54-7.42c3.73-2.09,7.83-3.39,11.54-5.48,3.14-1.78,6.6-4.67,6.21-8.68s-4.11-6.29-7.82-7a31.65,31.65,0,0,0-12.33.63,42.8,42.8,0,0,0-11.74,4.54,44.4,44.4,0,0,0-17.57,18,46,46,0,0,0-4.07,12.23c-.84,4.18-1.42,8.6-3.29,12.47a15,15,0,0,1-3.69,4.92l2.36.31A117.28,117.28,0,0,0,1210.64,644c-5.38-4.69-12.76-11.06-20.37-7.51-3,1.38-5.46,4.22-5.71,7.56a7.84,7.84,0,0,0,4.58,7.31c2.87,1.46,6.1,1.82,9.22,2.36a31.28,31.28,0,0,1,10,3.53,32.2,32.2,0,0,1,15,18.19c.31,1,1.76,1.6,2.51.66,4.83-6.09,3.32-14,1.51-21a153.19,153.19,0,0,1-4.67-26c-1.45-18.11.46-36.36,4.35-54.06,1-4.45,2.09-8.88,3.3-13.28,1-3.68,2.15-7.33,2.87-11.09,1.24-6.51,1.48-13.92-3.13-19.24-2.65-3.07-6.52-4.61-10.28-5.82a78.66,78.66,0,0,0-11.74-2.71,171.49,171.49,0,0,0-24.29-1.63c-15.87-.19-32.41.42-47.47-5.44a57,57,0,0,1-5.4-2.46V516a68.74,68.74,0,0,1,56.78-2.48c4.38,1.78,9.17,4,12.6,7.32,3.75,3.65,4,8.69,5.37,13.45,1.17,4.1,3.81,8,8.09,9.33,4.11,1.27,7.9-1.34,9-5.36,1.09-4.22,0-9-1-13.14A74.94,74.94,0,0,0,1201,488.35c-7.15-6.94-15.92-11.71-23.63-17.94a58.55,58.55,0,0,1-5.41-4.92c-1.74-1.83-3.6-3.87-4.25-6.37-.46-1.76-.06-4.11,1.66-5.09,2.28-1.3,5.79,1.11,7.83,2.05,10.8,4.95,21.63,9.83,32.39,14.85,2.25,1.05,4,2.21,4.72,4.72a64.86,64.86,0,0,1,1.43,7.87q1.47,8.89,2.93,17.78c.74,4.5.8,10,4.07,13.6a4.64,4.64,0,0,0,4.86,1.53c2.27-.75,3.15-3.08,3.81-5.16a37.7,37.7,0,0,0,1.59-15.75c-.56-4.91-2.39-10.11-1.39-15.06,1-5.23,5.7-7.72,9.91-10.24l15.32-9.17q15.33-9.15,30.71-18.22l7.8-4.61c2.13-1.25,4.32-2.94,6.66-3.74a4,4,0,0,1,2.32-.3c1,.36.41,1.42,0,2.08a80.89,80.89,0,0,1-5.63,6.39q-11.13,12.64-21.75,25.7-21.2,26.08-40.32,53.75c-5,7.25-13.61,17.07-8.47,26.39,2.52,4.57,7.29,5.09,12,5.33l17.47.89,17.47.88c2,.1,1.88-2.8,0-3-11.58-1.24-19.71,8.61-27.9,15.07-4.29,3.39-9.62,6.64-15.24,6.79a12.36,12.36,0,0,1-7.63-2.36c-2.36-1.69-4.34-3.85-6.71-5.55-9.12-6.55-20.89-8-31.83-8.08-13-.05-26.21,1.89-38.91-1.57-13.13-3.58-24.11-12.2-34.61-20.48l-.67,2.51,16.12-5.5c5.11-1.74,10.35-3.62,15.82-3.59,5.23,0,10.13,2.08,14.7,4.46,5,2.57,9.78,5.38,14.65,8.1l14.78,8.27c4.43,2.49,8.92,4.9,13.18,7.68a43.19,43.19,0,0,1,11,9.77c2.78,3.68,4.82,7.83,7.06,11.84a45.31,45.31,0,0,0,8,11,33.13,33.13,0,0,1,4.75,4.87,15.27,15.27,0,0,1,2.13,7.16,166.39,166.39,0,0,1-.34,33.47c-.55,5.72-1.28,11.43-2.06,17.12-.68,4.92-1.25,9.89-2.29,14.75-.92,4.3-2.31,8.68-5.11,12.15-3,3.72-7.35,5.86-11.8,7.36-10.16,3.43-20.91,5.06-31.46,6.76l-34,5.5-8.44,1.36c-1.9.31-1.1,3.2.8,2.9Z" transform="translate(-1109.69 -431.13)"/>

 </svg> 