<svg id="Lager_1" data-name="Lager 1" xmlns="http://www.w3.org/2000/svg" viewBox="0 0 27.38 27.38"><defs><style>.cls-1,.cls-3{fill:none;stroke:#fff;stroke-width:1.55px;}.cls-1{stroke-linecap:round;}.cls-2{fill:#fff;fill-rule:evenodd;}</style></defs><path class="cls-1" d="M590.55-42v-3.88" transform="translate(-576.86 59.53)"/><path class="cls-2" d="M590.55-51a1.29,1.29,0,0,0-1.29,1.29,1.29,1.29,0,0,0,1.29,1.29,1.3,1.3,0,0,0,1.3-1.29A1.3,1.3,0,0,0,590.55-51Z" transform="translate(-576.86 59.53)"/><path class="cls-3" d="M590.55-32.92a12.91,12.91,0,0,0,12.92-12.92,12.92,12.92,0,0,0-12.92-12.92,12.92,12.92,0,0,0-12.91,12.92A12.91,12.91,0,0,0,590.55-32.92Z" transform="translate(-576.86 59.53)"/></svg>