



<svg id="Lager_1" data-name="Lager 1" xmlns="http://www.w3.org/2000/svg" viewBox="0 0 1139.11 223.34"><defs><style>.cls-1{fill:none;stroke:#fcee21;stroke-miterlimit:10;stroke-width:5px;}</style></defs><path class="cls-1" d="M60,265c70.77-18,113.66-5.92,140,9,33.48,19,33.84,38.94,81,80s80.55,70.13,120,68c63.43-3.43,78.23-83.89,155-88,32-1.72,31.39,12.19,58,8,66.32-10.44,67.16-96.26,146-128,42.94-17.28,83.14-8.11,96-5,66.53,16.11,101.65,69.59,107,78,24.74,38.93,11.83,53.58,34,78,33.14,36.51,107.81,54.27,157,16,39.39-30.65,41.73-81.11,42-90" transform="translate(-59.38 -201.27)"/></svg>