<svg id="Lager_1" data-name="Lager 1" xmlns="http://www.w3.org/2000/svg" viewBox="0 0 124 248.91"><defs><style>.cls-1{fill:none;}</style></defs><path class="cls-1" d="M1887.5,1030.5a142.81,142.81,0,0,0,13-44c2.36-19.44-.94-28,6-43.5,2.5-5.61,10-20.73,22.61-24.27,5.12-1.44,10.54-.89,15.86-.94s11-.89,14.92-4.47c3.47-3.16,3.17-9.76.79-14-4.31-7.66-15-5.5-16.15-9.82-1.94-7.33,28.43-15.45,29-31.17.21-5.18-2.81-11.11-7.32-13.33-3.43-1.69-7.25-1-12.78,1-17.59,6.23-26.14,16-28.08,14.34-2.63-2.24,8.1-24.61,11.38-31.44a11.91,11.91,0,0,0,1.22-5.14c0-2.51-1.18-4.87-2.53-7A46.66,46.66,0,0,0,1910,797.23c-4.33-1.34-9.23-2.27-12-5.85s-.5-10.6,4-9.71a6.17,6.17,0,0,1,4,3.7c2.87,6.11.12,13.42-3.74,19s-8.9,10.41-11.3,16.72c-5.3,13.9,3.77,29.22,2.64,44.05-.18,2.36-1.27,5.3-3.63,5.32-2.56-6.31-5.27-12.75-9.92-17.72s-11.71-8.25-18.32-6.61c-9.27,2.3-14,13.81-11.38,23s10.74,15.87,19.46,19.76c2.31,1,5.15,2.6,4.9,5.12-.32,3.16-4.7,3.5-7.54,4.94-5.3,2.67-5.23,11-1.17,15.28s10.4,5.54,16.32,6c6.32.44,12.87.19,18.65-2.38s10.68-7.87,11.29-14.18c.88-9.16-6.9-16.61-14-22.48-1.88-1.56-4.09-3.21-6.49-2.81-3,.49-4.62,4.25-3.82,7.2s3.28,5.15,5.84,6.85c7,4.62,16.48,6.76,23.58,2.35s8.3-16.88.81-20.56c-2-1-4.37-1.32-5.78-3-1.1-1.3-1.33-3.1-1.52-4.79-1.31-11.81-7.73-20.46-3.69-33.16a29.59,29.59,0,0,1,5-9.35" transform="translate(-1849.56 -781.59)"/></svg>