<svg  className='leaf' id="Lager_1" data-name="Lager 1" xmlns="http://www.w3.org/2000/svg" viewBox="0 0 98.16 98.28"><defs><style>.cls-1{fill:none;} fill="none" stroke="black" stroke-width="4" </style></defs><path class="cls-1" d="M1581.5,38.5c4,2.08,10.08,4.38,17.08,3.56,9.27-1.09,13.87-6.91,16.71-5,4.13,2.8-5.47,15.3-.48,26,4.85,10.42,18.91,9.34,19.89,16.77.85,6.38-9.41,8-14.2,19.65-5.16,12.59,2,22.24-3,26-5.52,4.11-14.12-7.43-27-5s-17.47,16.32-23.17,14.26c-5.51-2-1.35-15.1-9.48-21.32-7.27-5.55-17.87-.65-19.4-4.33s10.08-8.49,10-16.65c-.1-8.56-13-12.22-11.76-18,1.1-5.33,12.36-3.22,18.33-11.47,5.77-8,1.61-18.74,4.5-19.5,3.45-.91,9.94,14.4,19,17.14A60.77,60.77,0,0,1,1591,65.92a18.26,18.26,0,0,1,3.5,2.58,26.82,26.82,0,0,1,8.43,16.85c.23,2.59,1.28,14.3-7.43,20.15-6.77,4.54-16,3.25-22.11-1.46-5.27-4.05-10-11.89-7.46-20s10.57-11.16,11.57-11.52" transform="translate(-1536.59 -36.68)"/></svg>