<svg className='leaf' xmlns="http://www.w3.org/2000/svg" viewBox="0 0 136.03 121.49">

<path class="path" className='leaf' fill="none" stroke="black" stroke-width="4" d="M1682.35,967.47l-136-.65c6.92-13.21,58.9-112.33,62.47-118,.47-.74,1.8-2.86,3.51-2.82,1.42,0,2.45,1.55,2.8,2.07,3.24,4.76,49.43,92.11,58,108.38-3.46.17-50.93,2.44-58.69-2.26a8.88,8.88,0,0,1-4.2-4.9,6.33,6.33,0,0,1,1.4-5.6c2.91-3.14,9.29-2.27,10.53.42a4.66,4.66,0,0,1-2.58,5.66c-2.26.68-4.63-1.94-5.85-3.28a21,21,0,0,1-4.9-11.2c-3.67-26.78-3.88-35.14-4.16-50.75,0-1.93-.14-6,2.56-8.58s7.5-3.49,10.8-1.64a8.78,8.78,0,0,1,3.61,4.37c4,9.58-2.36,54.85-3,59.4" transform="translate(-1546.33 -845.98)"/></svg>